<?xml version="1.0" encoding="utf-8"?>
<!-- Generator: Adobe Illustrator 17.0.0, SVG Export Plug-In . SVG Version: 6.00 Build 0)  -->
<!DOCTYPE svg PUBLIC "-//W3C//DTD SVG 1.1//EN" "http://www.w3.org/Graphics/SVG/1.1/DTD/svg11.dtd">
<svg version="1.1" id="Capa_1" xmlns="http://www.w3.org/2000/svg" xmlns:xlink="http://www.w3.org/1999/xlink" x="0px" y="0px"
	 width="500px" height="500px" viewBox="0 0 500 500" enable-background="new 0 0 500 500" xml:space="preserve">
<circle fill="#ECF0F1" cx="252.231" cy="243.738" r="206.855"/>
<path fill="#ECF0F1" d="M225.444,410.252c0-32.034,58.089-80.426,58.089-80.426l116.356,58.758
	c36.611-37.317,59.198-88.44,59.198-144.847c0-114.243-92.612-206.855-206.855-206.855S45.376,129.495,45.376,243.738
	s92.612,206.855,206.855,206.855c14.781,0,29.196-1.563,43.099-4.51L225.444,410.252z"/>
<path fill="#DCDEE3" d="M225.444,410.252l69.887,35.831c40.498-8.584,76.613-29.015,104.558-57.499l-116.356-58.758
	c0,0,11.125,20.924-0.26,32.556C266.634,379.382,225.444,391.232,225.444,410.252z"/>
<path fill="#DCDEE3" d="M149.406,128.267l100.677,48.756l206.305,99.91c1.766-10.875,2.699-22.03,2.699-33.405
	c0-26.907-5.141-52.612-14.488-76.192l-93.194-44.981l-8.022,4.379c0,0-23.952-2.16-62.319-1.888
	c-18.635,0.132-40.342-1.21-63.708-1.355C195.752,123.357,172.731,124.246,149.406,128.267z"/>
<path fill="#DCDEE3" d="M273.422,277.063l6.712,13.793L99.026,382.955c-24.64-27.034-42.208-60.626-49.779-97.851l173.845-81.272
	C223.093,203.832,191.291,257.257,273.422,277.063z"/>
<path fill="#DCDEE3" d="M278.734,410.252l-69.887,35.831c-40.498-8.584-76.613-29.015-104.558-57.499l116.356-58.758
	c0,0-11.125,20.924,0.26,32.556C237.543,379.382,294.316,400.965,278.734,410.252z"/>
<path fill="#DCDEE3" d="M354.772,127.1l-100.677,48.756L47.79,275.766c-1.766-10.875-2.699-22.03-2.699-33.404
	c0-26.907,5.141-52.612,14.488-76.192l93.194-44.981l8.022,4.379c0,0,23.952-2.16,62.319-1.888
	c18.635,0.132,40.342-1.21,63.708-1.355C308.426,122.19,331.447,123.079,354.772,127.1z"/>
<path fill="#DCDEE3" d="M230.756,277.063l-6.712,13.793l181.107,92.099c24.64-27.034,42.208-60.626,49.779-97.851l-173.845-81.272
	C281.085,203.832,312.887,257.257,230.756,277.063z"/>
<path fill="#FFFFFF" d="M277.094,201.991h-49.726c-8.45,0-15.3,6.856-15.3,15.313v45.94c0,5.58,2.992,10.448,7.448,13.125
	c0.768,7.923,3.131,13.696,5.928,13.696h2.255c2.533,0,4.707-4.734,5.667-11.507h38.462c0.96,6.773,3.134,11.507,5.667,11.507h2.255
	c2.853,0,5.249-6.009,5.968-14.174c4.03-2.758,6.677-7.392,6.677-12.647v-45.94C292.395,208.847,285.544,201.991,277.094,201.991z
	 M283.533,235.809h-62.604v-26.171h62.604V235.809z"/>
<path fill="#DCDEE3" d="M236.52,259.272c0,4.866-3.945,8.811-8.811,8.811l0,0c-4.866,0-8.811-3.945-8.811-8.811l0,0
	c0-4.866,3.945-8.811,8.811-8.811l0,0C232.576,250.461,236.52,254.406,236.52,259.272L236.52,259.272z"/>
<path fill="#DCDEE3" d="M286.178,259.272c0,4.866-3.945,8.811-8.811,8.811l0,0c-4.866,0-8.811-3.945-8.811-8.811l0,0
	c0-4.866,3.945-8.811,8.811-8.811l0,0C282.234,250.461,286.178,254.406,286.178,259.272L286.178,259.272z"/>
<path fill="#FFFFFF" d="M347.605,120.219h-49.784c-3.564-20.288-22.614-35.78-45.59-35.78c-22.976,0-42.027,15.492-45.59,35.78
	h-49.784c-4.115,0-7.451,3.081-7.451,6.881c0,3.8,3.336,6.881,7.451,6.881h49.784c3.564,20.288,22.614,35.78,45.59,35.78
	c22.976,0,42.027-15.492,45.59-35.78h49.784c4.115,0,7.451-3.081,7.451-6.881C355.056,123.3,351.72,120.219,347.605,120.219z
	 M252.231,91.97c16.395,0,29.686,4.965,29.686,11.089c0,6.124-13.291,11.089-29.686,11.089c-16.395,0-29.686-4.965-29.686-11.089
	C222.545,96.935,235.836,91.97,252.231,91.97z"/>
<circle fill="#DCDEE3" cx="252.231" cy="134.567" r="18.41"/>
<path fill="#ECF0F1" d="M447.082,316.478c-1.6,4.484-3.364,8.887-5.259,13.222c27.221,57.311,31.905,105.929,7.433,130.4
	c-45.355,45.355-173.635-9.391-286.522-122.278C49.847,224.936-4.899,96.655,40.456,51.3c24.16-24.16,71.853-19.911,128.213,6.396
	c4.319-1.911,8.726-3.657,13.195-5.275c-64.043-30.023-119.892-34.206-148.82-5.277c-51.226,51.226,1.351,186.855,117.432,302.936
	s251.711,168.658,302.936,117.432C482.673,438.252,478.05,381.446,447.082,316.478z"/>
<path fill="#ECF0F1" d="M455.234,288.081c-1.182,5.321-2.579,10.56-4.163,15.718c30.592,54.108,39.973,98.425,20.468,117.93
	c-35.406,35.406-152.556-24.339-261.662-133.444S41.027,62.03,76.434,26.623C95.612,7.445,138.776,16.195,191.65,45.571
	c4.631-1.445,9.325-2.747,14.09-3.87C138.275,7.425,79.026,0.894,49.342,30.578c-50.214,50.214,3.181,185.024,119.263,301.106
	S419.496,501.161,469.71,450.947C500.34,420.317,492.417,358.212,455.234,288.081z"/>
<path fill="#FFFFFF" d="M296.938,356.12l-13.412-28.899h-31.295h-31.295l-13.412,28.899h-35.765l38.746,53.67h41.726h41.726
	l38.746-53.67H296.938z M235.934,341.454h-10.868v-10.037h10.868V341.454z M250.141,341.454h-10.868v-10.037h10.868V341.454z
	 M264.019,341.454H253.15v-10.037h10.869V341.454z M278.306,341.454h-10.869v-10.037h10.869V341.454z"/>
<path fill="#DCDEE3" d="M262.218,384.666c-1.236,3.006-4.465,5.268-8.415,5.749v-8.459h3.937v-3.144h-3.937v-2.916
	c3.373-0.722,5.903-3.717,5.903-7.306c0-4.128-3.347-7.475-7.475-7.475c-4.128,0-7.475,3.347-7.475,7.475
	c0,3.589,2.53,6.584,5.903,7.306v2.916h-3.937v3.144h3.937v8.459c-3.95-0.481-7.179-2.743-8.415-5.749h-3.599
	c1.497,4.967,7.01,8.654,13.586,8.654s12.089-3.687,13.586-8.654H262.218z M247.647,368.59c0-2.532,2.053-4.585,4.585-4.585
	s4.585,2.053,4.585,4.585c0,2.532-2.053,4.585-4.585,4.585S247.647,371.122,247.647,368.59z"/>
</svg>
