<?xml version="1.0" encoding="utf-8"?>
<!-- Generator: Adobe Illustrator 17.0.0, SVG Export Plug-In . SVG Version: 6.00 Build 0)  -->
<!DOCTYPE svg PUBLIC "-//W3C//DTD SVG 1.1//EN" "http://www.w3.org/Graphics/SVG/1.1/DTD/svg11.dtd">
<svg version="1.1" id="Capa_1" xmlns="http://www.w3.org/2000/svg" xmlns:xlink="http://www.w3.org/1999/xlink" x="0px" y="0px"
	 width="2000px" height="2000px" viewBox="0 0 2000 2000" enable-background="new 0 0 2000 2000" xml:space="preserve">
<circle fill="#3997D3" cx="1006.256" cy="980.959" r="864.594"/>
<path fill="none" d="M894.293,1676.939c0-133.894,242.796-336.156,242.796-336.156l486.332,245.593
	c153.021-155.972,247.429-369.653,247.429-605.416c0-477.502-387.092-864.594-864.594-864.594S141.662,503.457,141.662,980.959
	s387.092,864.594,864.594,864.594c61.781,0,122.031-6.532,180.143-18.849L894.293,1676.939z"/>
<path fill="#F1C40D" d="M894.293,1676.939l292.106,149.765c169.269-35.879,320.221-121.276,437.022-240.329l-486.332-245.593
	c0,0,46.499,87.457-1.085,136.074C1066.458,1547.912,894.293,1597.439,894.293,1676.939z"/>
<path fill="#E84B3C" d="M576.477,498.325l420.799,203.786l862.295,417.594c7.381-45.456,11.279-92.08,11.279-139.621
	c0-112.463-21.488-219.902-60.557-318.459l-389.524-188.008l-33.531,18.302c0,0-100.114-9.027-260.476-7.893
	c-77.89,0.551-168.617-5.057-266.282-5.663C770.189,477.802,673.967,481.517,576.477,498.325z"/>
<path fill="#52B36E" d="M1094.826,1120.247l28.052,57.652l-756.974,384.947c-102.988-112.996-176.416-253.397-208.06-408.989
	l726.621-339.693C884.466,814.164,751.545,1037.464,1094.826,1120.247z"/>
<path fill="#7F4896" d="M1117.031,1676.939l-292.106,149.765c-169.269-35.879-320.221-121.276-437.022-240.329l486.332-245.593
	c0,0-46.499,87.457,1.085,136.074C944.866,1547.912,1182.157,1638.123,1117.031,1676.939z"/>
<path fill="#2981BA" d="M1434.847,493.448l-420.799,203.786l-862.295,417.594c-7.381-45.456-11.279-92.08-11.279-139.621
	c0-112.463,21.488-219.902,60.557-318.459L590.556,468.74l33.531,18.302c0,0,100.114-9.027,260.476-7.893
	c77.89,0.551,168.617-5.057,266.282-5.663C1241.135,472.925,1337.357,476.64,1434.847,493.448z"/>
<path fill="#E67D21" d="M916.498,1120.247l-28.052,57.652l756.974,384.947c102.988-112.996,176.416-253.397,208.06-408.989
	l-726.621-339.693C1126.858,814.164,1259.779,1037.464,916.498,1120.247z"/>
<path fill="#ECF0F1" d="M1110.176,806.469H902.336c-35.319,0-63.951,28.656-63.951,64.005v192.015
	c0,23.322,12.505,43.67,31.129,54.858c3.212,33.115,13.085,57.244,24.779,57.244h9.426c10.585,0,19.673-19.786,23.686-48.097
	h160.758c4.013,28.31,13.1,48.097,23.686,48.097h9.426c11.925,0,21.94-25.114,24.944-59.242
	c16.844-11.527,27.909-30.895,27.909-52.86V870.474C1174.127,835.125,1145.496,806.469,1110.176,806.469z M1137.089,947.82H875.424
	V838.434h261.665V947.82z"/>
<path fill="#DCDEE3" d="M940.59,1045.886c0,20.339-16.488,36.827-36.827,36.827l0,0c-20.339,0-36.827-16.488-36.827-36.827l0,0
	c0-20.339,16.488-36.827,36.827-36.827l0,0C924.102,1009.06,940.59,1025.547,940.59,1045.886L940.59,1045.886z"/>
<path fill="#DCDEE3" d="M1148.145,1045.886c0,20.339-16.488,36.827-36.827,36.827l0,0c-20.339,0-36.827-16.488-36.827-36.827l0,0
	c0-20.339,16.488-36.827,36.827-36.827l0,0C1131.657,1009.06,1148.145,1025.547,1148.145,1045.886L1148.145,1045.886z"/>
<path fill="#ECF0F1" d="M1404.892,464.689H1196.81c-14.896-84.798-94.521-149.549-190.554-149.549
	c-96.034,0-175.659,64.752-190.554,149.549H607.62c-17.2,0-31.143,12.876-31.143,28.759c0,15.883,13.943,28.76,31.143,28.76h208.082
	c14.896,84.797,94.521,149.549,190.554,149.549c96.033,0,175.659-64.752,190.554-149.549h208.082c17.2,0,31.143-12.876,31.143-28.76
	C1436.036,477.565,1422.092,464.689,1404.892,464.689z M1006.256,346.617c68.526,0,124.078,20.751,124.078,46.348
	c0,25.597-55.551,46.348-124.078,46.348c-68.527,0-124.078-20.751-124.078-46.348C882.178,367.368,937.73,346.617,1006.256,346.617z
	"/>
<circle fill="#DCDEE3" cx="1006.256" cy="524.656" r="76.95"/>
<path fill="#35495E" d="M1820.675,1270.983c-6.689,18.74-14.062,37.145-21.981,55.264
	c113.774,239.541,133.351,442.751,31.068,545.035c-189.57,189.569-725.743-39.251-1197.578-511.086
	C160.35,888.361-68.471,352.187,121.098,162.617C222.08,61.636,421.422,79.396,656.993,189.35
	c18.054-7.987,36.472-15.285,55.15-22.047C444.463,41.817,211.03,24.333,90.117,145.246
	c-214.108,214.108,5.645,780.998,490.832,1266.184s1052.077,704.94,1266.184,490.832
	C1969.436,1779.959,1950.112,1542.526,1820.675,1270.983z"/>
<path fill="#2C3E50" d="M1848.787,1170.664c-4.941,22.241-10.78,44.138-17.398,65.698
	c127.865,226.157,167.074,411.387,85.55,492.911c-147.988,147.988-637.64-101.728-1093.668-557.756S117.526,225.837,265.514,77.849
	c80.158-80.158,260.574-43.588,481.569,79.198c19.356-6.041,38.976-11.483,58.891-16.174
	C523.994-2.392,276.349-29.691,152.277,94.381c-209.881,209.881,13.297,773.346,498.484,1258.532s1048.651,708.365,1258.532,498.484
	C2037.316,1723.374,2004.202,1463.79,1848.787,1170.664z"/>
<path fill="#ECF0F1" d="M1193.117,1450.681l-56.058-120.79h-130.802H875.454l-56.058,120.79H669.907l161.946,224.324h174.403
	h174.403l161.946-224.324H1193.117z M938.137,1389.384H892.71v-41.95h45.427V1389.384z M997.519,1389.384h-45.427v-41.95h45.427
	V1389.384z M1055.526,1389.384h-45.427v-41.95h45.427V1389.384z M1115.241,1389.384h-45.428v-41.95h45.428V1389.384z"/>
<path fill="#DCDEE3" d="M1047.997,1569.996c-5.166,12.564-18.662,22.018-35.171,24.029v-35.356h16.456v-13.14h-16.456v-12.187
	c14.098-3.019,24.673-15.538,24.673-30.537c0-17.255-13.988-31.243-31.242-31.243s-31.243,13.988-31.243,31.243
	c0,14.999,10.575,27.518,24.673,30.537v12.187H983.23v13.14h16.456v35.356c-16.509-2.011-30.005-11.465-35.171-24.029H949.47
	c6.255,20.761,29.3,36.171,56.786,36.171s50.53-15.409,56.786-36.171H1047.997z M987.094,1502.804
	c0-10.583,8.579-19.162,19.162-19.162s19.162,8.579,19.162,19.162s-8.579,19.162-19.162,19.162S987.094,1513.387,987.094,1502.804z"
	/>
</svg>
